# xmcd
#
# Track frame offsets: 
#        150
#        13706
#        24463
#        38958
#        51768
#        59576
#        72421
#        84821
#        93256
#        103919
#        114464
#        129139
#        138469
#        151892
#        162149
#        171648
#        182438
#        196935
#        208959
#        219576
#        229937
#        241626
#
# Disc length: 3414 seconds
#
# Revision: 2
# Processed by: cddbd v1.4PL0 Copyright (c) Steve Scherf et al.
# Submitted via: ExactAudioCopy v0.90b4
#
DISCID=2d0d5416
DTITLE=Jim Reeves - Christmas Songbook
DYEAR=2003
DGENRE=Country
TTITLE0=Silver Bells
TTITLE1=Scarlet Ribbon
TTITLE2=Blue Christmas
TTITLE3=An Old Christmas Card
TTITLE4=Teach Me How To Pray
TTITLE5=C.H.R.I.S.T.M.A.S.
TTITLE6=Precious Memories
TTITLE7=Jingle Bells
TTITLE8=The Merry Christmas Polka
TTITLE9=In The Garden
TTITLE10=Silent Night
TTITLE11=O' Come, All Ye Faithful
TTITLE12=It Is No Secret
TTITLE13=A Beautiful Life
TTITLE14=Padre Of Old San Antone
TTITLE15=Senor Santa Clause
TTITLE16=Mary's Boy Child
TTITLE17=May The Good Lord Bless And Keep You
TTITLE18=O' Little Town Of Bethlehem
TTITLE19=The Flowers, The Sunset, The Trees
TTITLE20=An Evening Prayer
TTITLE21=White Christmas
EXTD=ID3G:   2
EXTT0=
EXTT1=
EXTT2=
EXTT3=
EXTT4=
EXTT5=
EXTT6=
EXTT7=
EXTT8=
EXTT9=
EXTT10=
EXTT11=
EXTT12=
EXTT13=
EXTT14=
EXTT15=
EXTT16=
EXTT17=
EXTT18=
EXTT19=
EXTT20=
EXTT21=
PLAYORDER=
